<svg xmlns="http://www.w3.org/2000/svg" width="38" height="40" fill="none" viewBox="0 0 38 40"><g clip-path="url(#clip0)"><path fill="#F2F2F3" d="M1.43354 19.2327L2.09278 17.6777L4.02528 16.641H6.61701H8.58681V19.2327V25.9713V27.2154L6.4097 27.7336L2.57397 26.5022L0.915253 23.0604L1.43354 19.2327Z"/><path fill="#F2F2F3" d="M36.2666 19.2327L35.6073 17.6777L33.6748 16.641H31.0831H29.1134V19.2327V25.9713V27.2154L31.2904 27.7336L35.1262 26.5022L36.785 23.0604L36.2666 19.2327Z"/><path fill="#EA1B64" d="M16.4657 35.198L18.7464 33.7466H21.2344L22.6612 34.7461L23.3079 36.7531L22.6612 38.3081L20.7161 38.8264H17.8133L16.4657 37.7485V35.198Z"/><path fill="#7E7E7E" d="M32.157 15.2727V13.7548C32.157 10.1223 30.8717 6.74669 28.5411 4.24189C26.1527 1.67136 22.8685 0.26123 19.2854 0.26123H18.0333C14.4502 0.26123 11.166 1.67136 8.77751 4.24189C6.4469 6.74669 5.16164 10.1223 5.16164 13.7548V15.2727C2.33343 15.4635 0.0858917 17.8187 0.0858917 20.6967V23.0686C0.0858917 26.0624 2.52423 28.5007 5.51796 28.5007H8.57866C9.12568 28.5007 9.57364 28.0528 9.57364 27.5058V16.2511C9.57364 15.704 9.12568 15.2562 8.57866 15.2562H7.15202V13.7549C7.15202 7.19465 11.8297 2.25161 18.0248 2.25161H19.2774C25.481 2.25161 30.1502 7.19455 30.1502 13.7549V15.2562H28.7234C28.1764 15.2562 27.7286 15.704 27.7286 16.2511V27.4972C27.7286 28.0446 28.1764 28.4925 28.7234 28.4925H30.117C29.7108 33.6841 26.1362 34.8868 24.4775 35.1606C24.0212 33.7591 22.7026 32.7469 21.1516 32.7469H18.6635C16.7396 32.7469 15.172 34.3145 15.172 36.2386C15.172 38.163 16.7396 39.7387 18.6635 39.7387H21.16C22.769 39.7387 24.1207 38.6436 24.5273 37.1675C25.3401 37.0513 26.6254 36.7609 27.9026 36.0146C29.7023 34.9614 31.8336 32.8134 32.1159 28.4839C34.9603 28.3099 37.2163 25.9465 37.2163 23.0603V20.688C37.2243 17.8187 34.9854 15.4549 32.157 15.2727ZM7.59988 26.5022H5.53468C3.63531 26.5022 2.09289 24.9593 2.09289 23.0605V20.6882C2.09289 18.789 3.63541 17.2466 5.53468 17.2466H7.59988V26.5022ZM21.1599 37.7484H18.6634C17.834 37.7484 17.1622 37.0765 17.1622 36.2471C17.1622 35.4178 17.834 34.746 18.6634 34.746H21.1599C21.9893 34.746 22.6612 35.4178 22.6612 36.2471C22.6612 37.0765 21.9893 37.7484 21.1599 37.7484ZM35.234 23.0604C35.234 24.9593 33.6915 26.5021 31.7922 26.5021H29.7273V17.2463H31.7922C33.6915 17.2463 35.234 18.7889 35.234 20.688V23.0604Z"/></g><defs><clipPath id="clip0"><rect width="37.321" height="40" fill="#fff"/></clipPath></defs></svg>