<svg xmlns="http://www.w3.org/2000/svg" width="40" height="40" fill="none" viewBox="0 0 40 40"><path fill="#F9F9F9" d="M1.54201 1.41699L6.45801 2.95799L12.25 7.83299L18.94 14.198L27.113 24.125L29.375 28.083L28.336 30.167L27.113 30.75L21.38 27.042L12.125 18.542L5.58301 10.583L2.33301 6.02499L0.833008 2.08299L1.54201 1.41699Z"/><path fill="#F9F9F9" d="M30.708 28.873H33.916L35.874 30.498L37.083 33.164L37.958 34.831V36.623L38.374 37.331V38.086L33.666 39.164L29.999 37.123L28.041 34.414V31.706L28.458 29.543L30.708 28.873Z"/><path fill="#7D7D7D" d="M3.03901 8.536C5.17501 11.875 8.41101 15.881 12.151 19.814C17.946 25.911 23.695 30.51 26.992 31.753C26.719 33.511 27.27 35.435 28.568 36.903C28.673 37.021 29.215 37.616 29.932 38.154C31.46 39.302 33.192 39.874 34.862 39.874C36.581 39.874 38.233 39.268 39.531 38.061C39.908 37.71 39.973 37.078 39.648 36.68C38.634 35.438 37.892 33.969 37.5 32.428C37.428 32.091 36.935 30.093 35.072 28.694C33.774 27.719 32.197 27.333 30.745 27.635C30.498 27.686 30.258 27.757 30.027 27.845C28.624 24.31 24.409 18.584 18.865 12.752C15.126 8.818 11.318 5.414 8.14401 3.167C4.88901 0.863004 3.26301 0.628004 1.30901 0.357004C0.818011 0.338004 0.396011 0.719004 0.370011 1.208C0.343011 3.669 1.07501 4.94 3.03901 8.536ZM18.566 24.078L22.915 19.503C23.682 20.457 24.401 21.39 25.066 22.29L21.218 26.338C20.373 25.651 19.486 24.896 18.566 24.078ZM28.622 30.432C29.101 29.629 29.867 29.082 30.777 28.893C31.881 28.664 33.101 28.973 34.124 29.742C35.715 30.937 36.084 32.706 36.087 32.723C36.091 32.743 36.095 32.762 36.1 32.782C36.538 34.516 37.3 36.183 38.325 37.661C36.136 39.085 33.122 38.871 30.66 37.022C29.982 36.513 29.463 35.937 29.406 35.873C28.012 34.297 27.682 32.007 28.622 30.432ZM27.642 30.147C26.32 29.654 24.379 28.477 22.009 26.672L25.377 23.107C26.947 25.405 28.074 27.407 28.597 28.887C27.99 29.407 27.664 30.108 27.642 30.147ZM1.69701 1.755C1.95701 1.718 3.31301 1.722 7.24101 4.581C10.431 6.903 14.228 10.328 17.932 14.225C19.435 15.806 20.86 17.402 22.167 18.957L18.047 23.291C16.614 21.958 15.106 20.469 13.551 18.833C9.84701 14.936 6.59101 10.942 4.38401 7.586C1.66601 3.455 1.66101 2.029 1.69701 1.755Z"/><path fill="#F9F9F9" d="M27.292 5.96704L3.61799 29.379L0.830994 39.133L10.593 36.277L34.267 12.865L27.292 5.96704Z"/><path fill="#EB1763" d="M7.143 32.89H10.573V36.283L10.592 36.277L34.267 12.866L27.291 5.96704L3.617 29.38L3.582 29.499H7.143V32.89Z"/><path fill="#F9F9F9" d="M38.815 8.36803C39.318 7.87103 39.318 7.06503 38.815 6.56803L33.66 1.47003C33.157 0.973029 32.342 0.974029 31.84 1.47103L27.293 5.96803L34.268 12.865L38.815 8.36803Z"/><path fill="#7D7D7D" d="M39.337 6.04105L34.182 0.943047C33.394 0.163047 32.11 0.161047 31.318 0.944047L26.77 5.44005L3.096 28.851C3.005 28.941 2.939 29.052 2.904 29.175L0.116005 38.929C0.0420048 39.189 0.115005 39.469 0.306005 39.66C0.447005 39.8 0.636005 39.876 0.829005 39.876C0.899005 39.876 0.969005 39.866 1.037 39.846L10.799 36.99C10.917 36.955 11.025 36.892 11.113 36.805L34.786 13.394L34.787 13.393L39.335 8.89605C39.721 8.51505 39.932 8.00705 39.932 7.46805C39.932 6.92905 39.721 6.42105 39.337 6.04105ZM10.078 35.654L1.914 38.043L4.214 29.995H6.648V32.891C6.648 33.164 6.869 33.386 7.143 33.386H10.078V35.654ZM11.067 34.763V32.89C11.067 32.617 10.846 32.395 10.572 32.395H7.638V29.499C7.638 29.226 7.41701 29.004 7.143 29.004H5.053L27.293 7.01105L33.212 12.864L11.067 34.763ZM38.293 7.84105L34.267 11.821L28.347 5.96805L32.361 1.99905C32.577 1.78505 32.925 1.78805 33.137 1.99805L38.292 7.09605C38.393 7.19605 38.449 7.32805 38.449 7.46805C38.449 7.60805 38.395 7.74005 38.293 7.84105Z"/></svg>