<svg xmlns="http://www.w3.org/2000/svg" width="59" height="40" fill="none" viewBox="0 0 59 40"><path fill="#7D7D7D" d="M56.5908 0.351562H2.42037C1.18964 0.351562 0.188293 1.34533 0.188293 2.56675V6.25739C0.188293 7.47881 1.18964 8.47258 2.42037 8.47258H3.93629V36.1705C3.93629 38.1132 5.49064 39.6348 7.4749 39.6348H51.5355C53.4872 39.6348 55.0749 38.0806 55.0749 36.1705V8.4724H56.5908C57.8215 8.4724 58.8229 7.47864 58.8229 6.25721V2.56675C58.8229 1.34533 57.8217 0.351562 56.5908 0.351562ZM56.1658 5.83548H52.418V36.1703C52.418 36.6189 52.014 36.9977 51.5357 36.9977H7.4749C6.97237 36.9977 6.5933 36.6421 6.5933 36.1703V5.83548H2.84531V2.98848H56.1658V5.83548Z"/><path fill="#F2F2F3" d="M5.26477 7.94666V36.2974C5.26477 37.419 6.22519 38.3161 7.47488 38.3161H51.5357C52.7369 38.3161 53.7465 37.419 53.7465 36.2974V7.94666H5.26477Z"/><path fill="#7D7D7D" d="M2.42035 1.67004H56.5908C57.0898 1.67004 57.4942 2.12957 57.4942 2.69633V6.92051C57.4942 7.48727 57.0896 7.9468 56.5908 7.9468H2.42035C1.92137 7.9468 1.51697 7.48727 1.51697 6.92051V2.69633C1.51697 2.12957 1.92137 1.67004 2.42035 1.67004Z"/><path fill="#F2F2F3" d="M5.26478 1.67004H4.06363V7.06765H5.26478V1.67004Z"/><path fill="#F2F2F3" d="M54.9477 1.67004H53.7465V7.06765H54.9477V1.67004Z"/><path fill="#EA1B64" d="M39.9743 13.806V15.5701H43.8181L36.6109 22.7234L33.6315 19.7665L26.5682 26.7763L20.8023 21.054L12.4417 29.3041L13.7391 30.5436L20.8023 23.5338L26.5682 29.2559L33.6315 22.2461L36.6109 25.2032L45.0676 16.8104V20.6249H46.8452V13.806H39.9743Z"/></svg>