<svg xmlns="http://www.w3.org/2000/svg" width="40" height="40" fill="none" viewBox="0 0 40 40"><g clip-path="url(#clip0)"><path fill="#fff" stroke="#7E7E7E" d="M7.32875 39.9471H31.7433C32.9294 39.9471 33.9861 39.0733 33.9861 37.884V2.18805C33.9861 0.99881 32.9294 0.125 31.7432 0.125H7.32875C6.1427 0.125 5.08594 0.998811 5.08594 2.18805V37.8841C5.08594 39.0733 6.14261 39.9471 7.32875 39.9471Z"/><path fill="#7D7D7D" d="M31.7433 40.0331H7.32875C6.04469 40.0331 5 39.0691 5 37.8841V2.18805C5 1.00313 6.04469 0.0390625 7.32875 0.0390625H31.7432C33.0274 0.0390625 34.0721 1.00305 34.0721 2.18805V37.884C34.072 39.069 33.0273 40.0331 31.7433 40.0331ZM7.32875 1.21094C6.69086 1.21094 6.17188 1.64922 6.17188 2.18805V37.8841C6.17188 38.4228 6.69086 38.8613 7.32875 38.8613H31.7433C32.3812 38.8613 32.9002 38.4229 32.9002 37.884V2.18805C32.9002 1.6493 32.3812 1.21094 31.7432 1.21094H7.32875Z"/><path fill="#7D7D7D" d="M19.8052 36.6989C18.7024 36.6989 17.8052 35.8017 17.8052 34.6988C17.8052 33.596 18.7024 32.6989 19.8052 32.6989C20.9081 32.6989 21.8052 33.596 21.8052 34.6988C21.8052 35.8017 20.9081 36.6989 19.8052 36.6989ZM19.8052 34.0805C19.4643 34.0805 19.1868 34.358 19.1868 34.6989C19.1868 35.0399 19.4643 35.3174 19.8052 35.3174C20.1462 35.3174 20.4237 35.0399 20.4237 34.6989C20.4237 34.358 20.1463 34.0805 19.8052 34.0805Z"/><path fill="#7D7D7D" d="M16.6687 12.455H1.555C0.744691 12.455 0.0854721 13.1142 0.0854721 13.9245V38.5636C0.0854721 39.3739 0.744691 40.0332 1.555 40.0332H16.6688C17.4791 40.0332 18.1383 39.3739 18.1383 38.5636V13.9245C18.1382 13.1141 17.479 12.455 16.6687 12.455Z"/><path fill="#fff" d="M15.6197 35.6772H2.33063C1.80672 35.6772 1.38196 35.2928 1.38196 34.8186V15.2105C1.38196 14.7363 1.80665 14.3519 2.33063 14.3519H15.6197C16.1437 14.3519 16.5684 14.7363 16.5684 15.2105V34.8185C16.5683 35.2928 16.1436 35.6772 15.6197 35.6772Z"/><path fill="#fff" d="M10.9022 13.6328H7.04805C6.94016 13.6328 6.85274 13.5454 6.85274 13.4375C6.85274 13.3296 6.94016 13.2422 7.04805 13.2422H10.9022C11.0101 13.2422 11.0975 13.3296 11.0975 13.4375C11.0975 13.5454 11.0101 13.6328 10.9022 13.6328Z"/><path fill="#fff" d="M11.6834 38.1294H6.2668C6.0511 38.1294 5.87617 37.9546 5.87617 37.7388C5.87617 37.523 6.0511 37.3481 6.2668 37.3481H11.6834C11.8991 37.3481 12.0741 37.523 12.0741 37.7388C12.0741 37.9546 11.8992 38.1294 11.6834 38.1294Z"/><path fill="#EB1763" d="M2.24375 18.7344V16.3806C2.24375 16.2413 2.33281 16.1283 2.44266 16.1283H15.3654C15.4752 16.1283 15.5643 16.2413 15.5643 16.3806V18.7344C15.5643 18.8737 15.4752 18.9867 15.3654 18.9867H2.44274C2.33289 18.9867 2.24375 18.8737 2.24375 18.7344Z"/><path fill="#EB1763" d="M2.24375 26.2594V21.1203C2.24375 20.981 2.33281 20.868 2.44266 20.868H8.70508C8.81492 20.868 8.90399 20.981 8.90399 21.1203V26.2594C8.90399 26.3987 8.81492 26.5116 8.70508 26.5116H2.44266C2.33289 26.5116 2.24375 26.3987 2.24375 26.2594Z"/><path fill="#EB1763" d="M2.24375 33.6104V28.4714C2.24375 28.3321 2.33281 28.2191 2.44266 28.2191H8.70508C8.81492 28.2191 8.90399 28.3321 8.90399 28.4714V33.6104C8.90399 33.7497 8.81492 33.8627 8.70508 33.8627H2.44266C2.33289 33.8627 2.24375 33.7497 2.24375 33.6104Z"/><path fill="#EB1763" d="M10.646 33.6105V21.1227C10.646 20.9835 10.7351 20.8705 10.8449 20.8705H15.3654C15.4752 20.8705 15.5643 20.9835 15.5643 21.1227V33.6105C15.5643 33.7498 15.4752 33.8627 15.3654 33.8627H10.8449C10.7351 33.8627 10.646 33.7498 10.646 33.6105Z"/></g><defs><clipPath id="clip0"><rect width="40" height="40" fill="#fff"/></clipPath></defs></svg>