<svg xmlns="http://www.w3.org/2000/svg" width="55" height="40" fill="none" viewBox="0 0 55 40"><path fill="#7D7D7D" d="M51.7296 40H3.27041C1.46709 40 0 38.5116 0 36.682V3.31801C0 1.48844 1.46709 0 3.27041 0H51.7296C53.5328 0 55 1.48844 55 3.31801V36.6819C55 38.5114 53.5329 40 51.7296 40ZM3.27041 1.75853C2.42277 1.75853 1.73319 2.45814 1.73319 3.31812V36.682C1.73319 37.542 2.42277 38.2416 3.27041 38.2416H51.7296C52.5772 38.2416 53.2668 37.542 53.2668 36.682V3.31801C53.2668 2.45803 52.5772 1.75841 51.7296 1.75841H3.27041V1.75853Z"/><path fill="#F9F9F9" d="M51.4863 1.07129H3.51376C2.19954 1.07129 1.13409 2.15224 1.13409 3.48559V36.5144C1.13409 37.8478 2.19954 38.9287 3.51376 38.9287H51.4864C52.8006 38.9287 53.866 37.8478 53.866 36.5144V3.48559C53.8659 2.15224 52.8006 1.07129 51.4863 1.07129Z"/><path fill="#EB1763" d="M32.7377 19.1704C33.4235 19.5047 33.4235 20.4955 32.7377 20.8298L28.0938 23.0937L23.0482 25.5534C22.4459 25.8471 21.7479 25.4017 21.7479 24.7237V20.0001V15.2766C21.7479 14.5985 22.4458 14.1532 23.0482 14.4468L28.0938 16.9065L32.7377 19.1704Z"/></svg>