<svg xmlns="http://www.w3.org/2000/svg" width="40" height="40" fill="none" viewBox="0 0 40 40"><g clip-path="url(#clip0)"><path fill="#7D7D7D" d="M20.2439 40C9.35025 40 0.487808 31.1376 0.487808 20.2439C0.487808 9.35023 9.35025 0.487793 20.2439 0.487793C31.1376 0.487793 40 9.35023 40 20.2439C40 31.1376 31.1376 40 20.2439 40ZM20.2439 2.43901C10.4263 2.43901 2.43903 10.4263 2.43903 20.2439C2.43903 30.0615 10.4263 38.0488 20.2439 38.0488C30.0615 38.0488 38.0488 30.0615 38.0488 20.2439C38.0488 10.4263 30.0615 2.43901 20.2439 2.43901Z"/><path fill="#7D7D7D" d="M17.0361 26.8097C18.2917 26.8097 18.2937 24.8585 17.0361 24.8585C15.7805 24.8585 15.7785 26.8097 17.0361 26.8097Z"/><path fill="#7D7D7D" d="M17.5073 26.8097C18.7629 26.8097 18.7649 24.8585 17.5073 24.8585C16.2517 24.8585 16.2498 26.8097 17.5073 26.8097Z"/><path fill="#7D7D7D" d="M18.1912 26.8097C19.4468 26.8097 19.4488 24.8585 18.1912 24.8585C16.9356 24.8585 16.9337 26.8097 18.1912 26.8097Z"/><path fill="#7D7D7D" d="M17.8868 26.8097C19.1424 26.8097 19.1444 24.8585 17.8868 24.8585C16.6312 24.8585 16.6293 26.8097 17.8868 26.8097Z"/><path fill="#EB1763" d="M20 27.9414C15.0371 27.9414 10.7746 30.9102 8.87122 35.1658C12.0302 37.5765 15.9629 39.0243 20.2439 39.0243C24.3619 39.0243 28.158 37.6838 31.2537 35.436C29.4127 31.0351 25.0683 27.9414 20 27.9414Z"/><path fill="#F2F2F2" d="M20.5268 26.5639H19.961C16.1093 26.5639 12.9863 23.441 12.9863 19.5893V16.6293C12.9863 12.7776 16.1093 9.65466 19.961 9.65466H20.5268C24.3785 9.65466 27.5015 12.7776 27.5015 16.6293V19.5893C27.5015 23.441 24.3785 26.5639 20.5268 26.5639Z"/><path fill="#7D7D7D" d="M32.1541 35.0604C30.5717 31.276 27.3785 28.5297 23.5649 27.4614V26.9326C26.4449 25.7365 28.4771 22.8965 28.4771 19.5882V16.6282C28.4771 12.2438 24.9102 8.67798 20.5268 8.67798H19.961C15.5776 8.67798 12.0107 12.2448 12.0107 16.6282V19.5882C12.0107 22.676 13.7834 25.3511 16.36 26.6672V27.4848C12.6937 28.5453 9.58829 31.1716 7.98049 34.7668C7.7961 35.1804 7.91902 35.6663 8.28 35.9404C11.76 38.596 15.8976 39.999 20.2449 39.999C24.4215 39.999 28.4263 38.6936 31.8283 36.2253C32.1932 35.9599 32.3288 35.477 32.1541 35.0604ZM20 28.917C20.5356 28.917 21.0644 28.955 21.5834 29.0282C21.4439 29.798 20.7717 30.3853 19.962 30.3853C19.159 30.3853 18.4898 29.8087 18.3434 29.0487C18.8878 28.9658 19.44 28.917 20 28.917ZM13.9619 19.5892V16.6292C13.9619 13.3209 16.6527 10.6302 19.961 10.6302H20.5268C23.8351 10.6302 26.5259 13.3219 26.5259 16.6292V19.5892C26.5259 22.8965 23.8341 25.5882 20.5268 25.5882H19.961C16.6527 25.5882 13.9619 22.8965 13.9619 19.5892ZM20.2439 38.0487C16.5922 38.0487 13.1044 36.9482 10.1063 34.8594C11.4722 32.3014 13.7688 30.4214 16.4517 29.5199C16.8117 31.1277 18.2459 32.3355 19.961 32.3355C21.6937 32.3355 23.1424 31.1063 23.4859 29.475C26.2946 30.3902 28.6644 32.3872 30.0254 35.0994C27.1073 37.0321 23.7424 38.0487 20.2439 38.0487Z"/><path fill="#F2F2F2" d="M18.0244 27.0809C17.9785 27.9775 18.0244 28.917 18.0244 28.917C18.0829 29.9687 18.9922 30.6692 19.9629 30.6692C20.9346 30.6692 21.8654 29.8887 21.8654 28.917C21.8654 28.917 21.8771 27.9414 21.8654 27.0809C21.0039 27.6839 19.0283 27.6731 18.0244 27.0809Z"/></g><defs><clipPath id="clip0"><rect width="40" height="40" fill="#fff"/></clipPath></defs></svg>