<svg width="46" height="42" viewBox="0 0 46 42" fill="none" xmlns="http://www.w3.org/2000/svg">
<path d="M39.5485 1.19128H6.45147C3.6046 1.19128 1.3125 3.59011 1.3125 6.50983V35.6589C1.3125 38.5786 3.6046 40.9774 6.45147 40.9774H39.5485C42.3954 40.9774 44.6875 38.5786 44.6875 35.6589V6.50983C44.6875 3.59011 42.3954 1.19128 39.5485 1.19128ZM42.4331 35.6589C42.4331 37.3301 41.1258 38.6663 39.5485 38.6663H6.45147C4.87426 38.6663 3.56691 37.3301 3.56691 35.6589V6.50983C3.56691 4.83872 4.87426 3.50241 6.45147 3.50241H39.5485C41.1258 3.50241 42.4331 4.83871 42.4331 6.50983V35.6589Z" fill="#7D7D7D" stroke="#7D7D7D" stroke-width="0.75"/>
<path d="M43.768 6.96653V12.9076H2.23203V6.96653C2.23203 4.70732 4.04644 2.87561 6.28431 2.87561H39.7157C41.9536 2.87561 43.768 4.70732 43.768 6.96653Z" fill="#7D7D7D"/>
<path d="M20.5394 6.40406C21.387 6.40682 22.0716 7.10279 22.0689 7.9585C22.0661 8.81422 21.3768 9.50579 20.529 9.50303C19.6814 9.50016 18.9967 8.8043 18.9996 7.94858C19.0027 7.09276 19.6917 6.40171 20.5394 6.40406Z" fill="white"/>
<path d="M43.768 12.9076V35.6109C43.768 37.8706 41.9536 39.7019 39.7157 39.7019H6.28431C4.04644 39.7019 2.23203 37.8706 2.23203 35.6109V12.9076H43.768Z" fill="white"/>
<path d="M13.6441 6.38246C14.4918 6.38522 15.1768 7.0812 15.174 7.93693C15.1713 8.79266 14.4819 9.48424 13.6343 9.48148C12.7866 9.47861 12.1016 8.78274 12.1043 7.92701C12.1056 7.51586 12.2686 7.12201 12.5571 6.83236C12.846 6.54262 13.2374 6.38082 13.6441 6.38246Z" fill="white"/>
<path d="M6.74927 6.36012C7.59731 6.36257 8.28275 7.05844 8.27992 7.91467C8.27759 8.7708 7.58819 9.46267 6.74016 9.45991C5.89212 9.45746 5.20668 8.76159 5.20951 7.90546C5.21022 7.49433 5.37332 7.10047 5.66215 6.81043C5.95108 6.52079 6.34202 6.35858 6.74927 6.36012Z" fill="white"/>
<path d="M18.47 29.9911C18.3019 29.9915 18.1389 29.9308 18.0106 29.8205L13.4225 25.8758C13.2642 25.7396 13.1732 25.5402 13.1732 25.3305C13.1732 25.1208 13.2642 24.9214 13.4225 24.7855L18.0106 20.8409C18.309 20.5844 18.7565 20.6208 19.0102 20.9216C19.2643 21.2228 19.2286 21.6746 18.9303 21.9311L14.9766 25.3305L18.9307 28.7303C19.157 28.9248 19.239 29.2412 19.1364 29.5229C19.0336 29.8046 18.7681 29.9915 18.4704 29.9911H18.47Z" fill="#EB1763"/>
<path d="M27.53 29.9911C27.2323 29.9915 26.9668 29.8045 26.864 29.5229C26.7614 29.2412 26.8434 28.9248 27.0697 28.7303L31.0234 25.3305L27.0693 21.9311C26.771 21.6746 26.7353 21.2228 26.9894 20.9216C27.2431 20.6208 27.6906 20.5844 27.989 20.8409L32.5771 24.7855C32.7354 24.9214 32.8264 25.1208 32.8264 25.3305C32.8264 25.5402 32.7354 25.7396 32.5771 25.8758L27.989 29.8205C27.8607 29.9307 27.6981 29.9911 27.53 29.9911Z" fill="#EB1763"/>
<path d="M21.376 32.9502C21.1618 32.9502 20.9596 32.8527 20.8246 32.6854C20.6901 32.5176 20.6371 32.2979 20.681 32.0865L23.541 18.378C23.6217 17.9909 23.9977 17.7436 24.3811 17.8251C24.7642 17.9066 25.0095 18.2862 24.9288 18.6733L22.0689 32.3818C22 32.7125 21.7107 32.9499 21.376 32.9502Z" fill="#EB1763"/>
</svg>