<svg width="39" height="40" viewBox="0 0 39 40" fill="none" xmlns="http://www.w3.org/2000/svg">
<path d="M29.3727 0.19751L24.632 7.27702L30.8901 13.598L37.9696 8.79395V0.19751H29.3727Z" fill="#7D7D7D"/>
<path d="M34.5062 11.4253L34.6025 11.1329L34.3849 10.9153L27.1155 3.64643L26.8983 3.42923L26.6064 3.52483L15.7978 7.06449L15.5693 7.1393L15.4851 7.36444L8.53171 25.9482L8.41897 26.2495L8.64645 26.477L9.15222 26.9828L9.50578 27.3363L9.85933 26.9828L17.8239 19.0182L18.0596 18.7826L17.9327 18.4744C17.5686 17.5899 17.7738 16.4765 18.5191 15.7312C19.5248 14.7255 21.1677 14.7255 22.1735 15.7312C23.1792 16.737 23.1792 18.3799 22.1735 19.3856C21.4297 20.1294 20.3756 20.3396 19.4213 19.9684L19.1132 19.8485L18.8822 20.0851L11.0443 28.1128L10.6992 28.4663L11.0485 28.8157L11.5543 29.3215L11.7818 29.5489L12.0831 29.4362L30.6668 22.4829L30.8914 22.3989L30.9665 22.1711L34.5062 11.4253Z" fill="#7D7D7D" stroke="#7D7D7D"/>
<path d="M34.0313 11.2688L26.762 4L15.9534 7.53965L9 26.1235L9.50578 26.6292L17.4703 18.6647C17.0279 17.5898 17.2805 16.2627 18.1655 15.3777C19.3665 14.1767 21.326 14.1767 22.527 15.3777C23.728 16.5787 23.728 18.5382 22.527 19.7392C21.642 20.6242 20.3778 20.8769 19.24 20.4344L11.4021 28.4621L11.9079 28.9679L30.4916 22.0146L34.0313 11.2688Z" fill="#F2F2F3"/>
<path d="M36.6777 12.6778C35.6033 13.7526 33.8969 13.7526 32.822 12.6778L25.8059 5.66156C24.7314 4.58709 24.7314 2.88032 25.8059 1.80585C26.8803 0.731383 28.5871 0.731383 29.6616 1.80585L36.6777 8.82205C37.7526 9.83361 37.7526 11.6033 36.6777 12.6778Z" fill="#EA1B64"/>
<path d="M36.642 37.8151H4.08872C3.01435 37.8151 2.19252 37.0566 2.19252 36.0455C2.19252 35.1037 2.90512 34.3821 3.87035 34.2868C4.11292 34.5512 4.46018 34.7179 4.84724 34.7179C5.58067 34.7179 6.17484 34.1238 6.17484 33.3903C6.17484 32.6573 5.58067 32.0632 4.84724 32.0632C4.51825 32.0632 4.21791 32.1835 3.98601 32.3818C1.94749 32.4348 0.296326 34.0571 0.296326 36.1088C0.296326 38.1944 2.00309 39.7746 4.08872 39.7746H36.642C37.1478 39.7746 37.5904 39.2693 37.5904 38.7634C37.5904 38.2576 37.1478 37.8151 36.642 37.8151Z" fill="#7D7D7D"/>
</svg>