<svg width="22" height="24" viewBox="0 0 22 24" fill="none" xmlns="http://www.w3.org/2000/svg">
<g clip-path="url(#clip0)">
<path d="M10.3937 14.7534L8.79443 13.9064L8.3156 14.8104L9.9149 15.6575L10.3937 14.7534Z" fill="#424242"/>
<path d="M18.1095 11.8346C16.4513 14.9653 12.5915 16.1706 9.48803 14.5268C6.38452 12.883 5.21299 9.01288 6.8712 5.88215C8.52941 2.75141 12.3892 1.54612 15.4927 3.18991C18.5962 4.83371 19.7678 8.70387 18.1095 11.8346Z" fill="#2D2D2D"/>
<path d="M17.3489 11.4317C15.9155 14.138 12.5789 15.1775 9.89902 13.758C7.21911 12.3386 6.2015 8.99295 7.63492 6.28662C9.06835 3.58029 12.4049 2.54082 15.0848 3.96026C17.7647 5.37969 18.7808 8.72826 17.3489 11.4317Z" fill="#BDBDBE"/>
<path d="M5.31125 19.1452L5.0105 19.6224C4.92661 19.7529 4.97761 19.9214 5.10152 19.987L7.41258 21.2111C7.54801 21.2828 7.7045 21.2242 7.76533 21.0815L7.99115 20.5646L5.31125 19.1452Z" fill="#2D2D2D"/>
<path d="M10.0707 16.0117C10.1254 15.8806 10.0736 15.7415 9.9612 15.682L8.27833 14.7906C8.15442 14.725 8.0041 14.7719 7.94405 14.8853L7.84785 15.0391L10.0004 16.1792L10.0707 16.0117Z" fill="#2D2D2D"/>
<path d="M7.83459 15.0359L5.30966 19.1481L8.01551 20.5813L9.99869 16.1821L7.83459 15.0359Z" fill="#EB1763"/>
</g>
<defs>
<clipPath id="clip0">
<rect width="13.0435" height="20" fill="white" transform="translate(9.76538) rotate(27.9082)"/>
</clipPath>
</defs>
</svg>