<svg xmlns="http://www.w3.org/2000/svg" xmlns:xlink="http://www.w3.org/1999/xlink" id="Layer_1" x="0" y="0" version="1.1" viewBox="0 0 64 64" xml:space="preserve" style="enable-background:new 0 0 64 64"><g><g><path style="fill:#e6e6e6" d="M53.125,58.301h-47.5C2.523,58.301,0,55.777,0,52.676V23.551c0-3.101,2.523-5.625,5.625-5.625h47.5 c3.102,0,5.625,2.524,5.625,5.625v29.125C58.75,55.777,56.227,58.301,53.125,58.301L53.125,58.301z M53.125,58.301"/><rect style="fill:#eb1763" width="7.5" height="3.75" x="20" y="44.551"/><rect style="fill:#eb1763" width="7.5" height="3.75" x="8.75" y="44.551"/><rect style="fill:#eb1763" width="7.5" height="3.75" x="42.5" y="44.551"/><rect style="fill:#eb1763" width="7.5" height="3.75" x="31.25" y="44.551"/><g><defs><rect id="SVGID_1_" width="64" height="52.5" y="5.801"/></defs><clipPath id="SVGID_2_"><use xlink:href="#SVGID_1_" style="overflow:visible"/></clipPath><path style="clip-path:url(#SVGID_2_);fill:#f9418d" d="M22.5,37.923c-1.601,0-3.201-0.609-4.419-1.828 c-2.437-2.437-2.437-6.402,0-8.839c2.437-2.437,6.402-2.437,8.839,0c2.437,2.437,2.437,6.402,0,8.839 C25.701,37.314,24.101,37.923,22.5,37.923L22.5,37.923z M22.5,37.923"/><path style="clip-path:url(#SVGID_2_);fill:#6be86b" d="M49.625,34.551c-7.926,0-14.375-6.449-14.375-14.375 S41.699,5.801,49.625,5.801S64,12.249,64,20.176S57.551,34.551,49.625,34.551L49.625,34.551z M49.625,34.551"/><path style="clip-path:url(#SVGID_2_);fill:#3fc43f" d="M49.625,34.551c-7.926,0-14.375-6.449-14.375-14.375 S41.699,5.801,49.625,5.801S64,12.249,64,20.176S57.551,34.551,49.625,34.551L49.625,34.551z M49.625,9.551 C43.767,9.551,39,14.317,39,20.176s4.767,10.625,10.625,10.625S60.25,26.034,60.25,20.176S55.483,9.551,49.625,9.551 L49.625,9.551z M49.625,9.551"/></g><path style="fill:#fff" d="M48.75,24.293l-4.875-4.875l2.652-2.651l2.224,2.224l4.282-4.282l2.651,2.652L48.75,24.293z M48.75,24.293"/><path style="fill:#eb1763" d="M15,37.926c-3.446,0-6.25-2.804-6.25-6.25s2.804-6.25,6.25-6.25s6.25,2.804,6.25,6.25 S18.446,37.926,15,37.926L15,37.926z M15,37.926"/></g><rect style="fill:none" width="64" height="64"/></g></svg>