<?xml version="1.0" encoding="iso-8859-1"?>
<!-- Generator: Adobe Illustrator 22.0.0, SVG Export Plug-In . SVG Version: 6.00 Build 0)  -->
<svg version="1.1" id="Layer_1" xmlns="http://www.w3.org/2000/svg" xmlns:xlink="http://www.w3.org/1999/xlink" x="0px" y="0px"
	 viewBox="0 0 64 64" style="enable-background:new 0 0 64 64;" xml:space="preserve">
<g>
	<g>
		<path style="fill:#E6E6E6;" d="M32.011,64c-17.645,0-32-14.355-32-32s14.355-32,32-32s32,14.355,32,32S49.656,64,32.011,64
			L32.011,64z M32.011,2c-16.542,0-30,13.458-30,30s13.458,30,30,30s30-13.458,30-30S48.553,2,32.011,2L32.011,2z M32.011,2"/>
		<path style="fill:#F7287C;" d="M54.011,56c-2.13,0-3.859,1.66-3.99,3.75c-0.1-0.06-0.189-0.13-0.289-0.21
			c-1.651-1.28-2.721-3.28-2.721-5.54c0-3.87,3.13-7,7-7c2.26,0,4.271,1.07,5.53,2.73c0.93,1.18,1.47,2.66,1.47,4.27
			c0,2.39-1.189,4.49-3.01,5.75C57.871,57.66,56.131,56,54.011,56c1.101,0,2-0.9,2-2c0-1.1-0.899-2-2-2c-1.1,0-2,0.9-2,2
			C52.011,55.1,52.911,56,54.011,56L54.011,56z M54.011,56"/>
		<path style="fill:#45DB82;" d="M58.001,59.748c-0.001-0.011-0.002-0.022-0.003-0.033c-0.004-0.06-0.01-0.119-0.016-0.179
			c-0.002-0.017-0.005-0.034-0.007-0.05c-0.007-0.057-0.016-0.113-0.025-0.17c-0.002-0.01-0.004-0.02-0.006-0.03
			C57.605,57.42,55.971,56,54.011,56c-2.13,0-3.859,1.66-3.99,3.75c1.131,0.79,2.511,1.25,3.99,1.25c1.48,0,2.86-0.46,3.99-1.25
			C58.001,59.749,58.001,59.749,58.001,59.748C58.001,59.748,58.001,59.748,58.001,59.748z"/>
		<path style="fill:#F7287C;" d="M10.011,56c-2.13,0-3.859,1.66-3.99,3.75c-0.1-0.06-0.189-0.13-0.288-0.21
			C4.081,58.26,3.011,56.26,3.011,54c0-3.87,3.13-7,7-7c2.26,0,4.271,1.07,5.53,2.73c0.93,1.18,1.47,2.66,1.47,4.27
			c0,2.39-1.189,4.49-3.01,5.75C13.871,57.66,12.131,56,10.011,56c1.101,0,2-0.9,2-2c0-1.1-0.899-2-2-2c-1.1,0-2,0.9-2,2
			C8.011,55.1,8.911,56,10.011,56L10.011,56z M10.011,56"/>
		<path style="fill:#45DB82;" d="M14.001,59.748c-0.001-0.011-0.002-0.022-0.003-0.033c-0.004-0.06-0.01-0.119-0.016-0.179
			c-0.002-0.017-0.005-0.034-0.007-0.05c-0.007-0.057-0.016-0.113-0.025-0.17c-0.002-0.01-0.004-0.02-0.006-0.03
			C13.605,57.42,11.971,56,10.011,56c-2.13,0-3.859,1.66-3.99,3.75C7.152,60.54,8.532,61,10.011,61c1.48,0,2.86-0.46,3.99-1.25
			C14.001,59.749,14.001,59.749,14.001,59.748C14.001,59.748,14.001,59.748,14.001,59.748z"/>
		<path style="fill:#F7287C;" d="M54.011,12c-2.13,0-3.859,1.66-3.99,3.75c-0.1-0.06-0.189-0.13-0.289-0.21
			c-1.651-1.28-2.721-3.28-2.721-5.54c0-3.87,3.13-7,7-7c2.26,0,4.271,1.07,5.53,2.73c0.93,1.18,1.47,2.66,1.47,4.27
			c0,2.39-1.189,4.49-3.01,5.75C57.871,13.66,56.131,12,54.011,12c1.101,0,2-0.9,2-2c0-1.1-0.899-2-2-2c-1.1,0-2,0.9-2,2
			C52.011,11.1,52.911,12,54.011,12L54.011,12z M54.011,12"/>
		<path style="fill:#45DB82;" d="M58.001,15.748c-0.001-0.011-0.002-0.022-0.003-0.033c-0.004-0.06-0.01-0.119-0.016-0.179
			c-0.002-0.017-0.005-0.034-0.007-0.05c-0.007-0.057-0.016-0.114-0.025-0.17c-0.002-0.01-0.004-0.02-0.006-0.03
			C57.605,13.42,55.971,12,54.011,12c-2.13,0-3.859,1.66-3.99,3.75c1.131,0.79,2.511,1.25,3.99,1.25c1.48,0,2.86-0.46,3.99-1.25
			C58.001,15.749,58.001,15.749,58.001,15.748C58.001,15.748,58.001,15.748,58.001,15.748z"/>
		<path style="fill:#F7287C;" d="M27.011,40c1.101,0,2,0.9,2,2c0,1.11-0.899,2-2,2h-9.74c-1.869-2.28-3.22-5.01-3.859-8h8.599
			c1.101,0,2,0.9,2,2c0,1.11-0.899,2-2,2H27.011z M27.011,40"/>
		<path style="fill:#E6E6E6;" d="M36.011,26c0,1.11,0.891,2,2,2h-8c-1.109,0-2,0.9-2,2c0,1.11,0.891,2,2,2h11c-1.109,0-2,0.9-2,2
			c0,1.11,0.891,2,2,2h9.521c-1.84,8.55-9.46,14.96-18.561,14.96c-5.92,0-11.21-2.71-14.689-6.96h9.729c1.101,0,2-0.89,2-2
			c0-1.1-0.899-2-2-2h-5c1.101,0,2-0.89,2-2c0-1.1-0.899-2-2-2h-8.6c-0.29-1.3-0.44-2.66-0.44-4.04c0-10.49,8.511-19,19-19
			c5.96,0,11.271,2.74,14.75,7.04h-13.71c-1.109,0-2,0.9-2,2c0,1.11,0.891,2,2,2h5C36.902,24,36.011,24.9,36.011,26L36.011,26z
			 M36.011,26"/>
		<path style="fill:#D3D3D3;" d="M46.732,20h-0.011c-3.479-4.3-8.79-7.04-14.75-7.04c-0.679,0-1.347,0.039-2.007,0.108
			c5.143,0.536,9.671,3.118,12.757,6.932h0.011c2.649,3.26,4.239,7.43,4.239,11.96c0,1.38-0.149,2.74-0.439,4.04
			c-1.705,7.924-8.379,14.001-16.592,14.849c0.668,0.071,1.345,0.111,2.031,0.111c9.101,0,16.721-6.41,18.561-14.96
			c0.29-1.3,0.439-2.66,0.439-4.04C50.971,27.43,49.381,23.26,46.732,20L46.732,20z M46.732,20"/>
		<path style="fill:#F7287C;" d="M50.971,31.96c0,1.38-0.149,2.74-0.439,4.04h-9.521c-1.109,0-2-0.89-2-2c0-1.1,0.891-2,2-2h-11
			c-1.109,0-2-0.89-2-2c0-1.1,0.891-2,2-2h8c-1.109,0-2-0.89-2-2c0-1.1,0.891-2,2-2h-5c-1.109,0-2-0.89-2-2c0-1.1,0.891-2,2-2
			h13.721C49.381,23.26,50.971,27.43,50.971,31.96z"/>
		<path style="fill:#F7287C;" d="M10.011,12c-2.13,0-3.859,1.66-3.99,3.75c-0.1-0.06-0.189-0.13-0.288-0.21
			C4.081,14.26,3.011,12.26,3.011,10c0-3.87,3.13-7,7-7c2.26,0,4.271,1.07,5.53,2.73c0.93,1.18,1.47,2.66,1.47,4.27
			c0,2.39-1.189,4.49-3.01,5.75C13.871,13.66,12.131,12,10.011,12c1.101,0,2-0.9,2-2c0-1.1-0.899-2-2-2c-1.1,0-2,0.9-2,2
			C8.011,11.1,8.911,12,10.011,12L10.011,12z M10.011,12"/>
		<path style="fill:#45DB82;" d="M14.001,15.748c-0.001-0.011-0.002-0.022-0.003-0.033c-0.004-0.06-0.01-0.119-0.016-0.179
			c-0.002-0.017-0.005-0.034-0.007-0.05c-0.007-0.057-0.016-0.114-0.025-0.17c-0.002-0.01-0.004-0.02-0.006-0.03
			C13.605,13.42,11.971,12,10.011,12c-2.13,0-3.859,1.66-3.99,3.75C7.152,16.54,8.532,17,10.011,17c1.48,0,2.86-0.46,3.99-1.25
			C14.001,15.749,14.001,15.749,14.001,15.748C14.001,15.748,14.001,15.748,14.001,15.748z"/>
		<path style="fill:#E6E6E6;" d="M57.011,54c0,1.65-1.349,3-3,3c-1.65,0-3-1.35-3-3c0-1.65,1.35-3,3-3
			C55.662,51,57.011,52.35,57.011,54L57.011,54z M57.011,54"/>
		<path style="fill:#E6E6E6;" d="M13.011,54c0,1.65-1.349,3-3,3c-1.65,0-3-1.35-3-3c0-1.65,1.35-3,3-3
			C11.662,51,13.011,52.35,13.011,54L13.011,54z M13.011,54"/>
		<path style="fill:#E6E6E6;" d="M57.011,10c0,1.65-1.349,3-3,3c-1.65,0-3-1.35-3-3s1.35-3,3-3C55.662,7,57.011,8.35,57.011,10
			L57.011,10z M57.011,10"/>
		<path style="fill:#E6E6E6;" d="M13.011,10c0,1.65-1.349,3-3,3c-1.65,0-3-1.35-3-3s1.35-3,3-3C11.662,7,13.011,8.35,13.011,10
			L13.011,10z M13.011,10"/>
	</g>
	<rect x="0.011" y="0" style="fill:none;" width="64" height="64"/>
</g>
</svg>
