<svg xmlns="http://www.w3.org/2000/svg" xmlns:xlink="http://www.w3.org/1999/xlink" id="Capa_1" x="0" y="0" version="1.1" viewBox="175 365 64 64" xml:space="preserve" style="enable-background:new 175 365 64 64"><g><g><g><path style="fill:#e6e6e6" d="M207.652,375.593l2.948-2.207c0.557-0.417,0.884-1.071,0.884-1.766v-4.414 c0-1.219-0.99-2.207-2.211-2.207h-1.295c-0.586,0-1.149,0.233-1.564,0.646h0c-0.864,0.862-2.264,0.862-3.127,0l0,0 c-0.415-0.414-0.977-0.646-1.564-0.646h-4.802c-0.586,0-1.149,0.233-1.564,0.646h0c-0.864,0.862-2.264,0.862-3.127,0l0,0 c-0.415-0.414-0.977-0.646-1.564-0.646h-1.295c-1.221,0-2.211,0.988-2.211,2.207v4.414c0,0.695,0.328,1.349,0.884,1.766 l2.948,2.207c0.383,0.286,0.848,0.441,1.327,0.441h14.004C206.804,376.034,207.27,375.879,207.652,375.593z"/><path style="fill:#eb1763" d="M193.137,376.034h12.371c0.858,0,1.554,0.694,1.554,1.551v2.415c0,0.857-0.696,1.551-1.554,1.551 h-12.371c-0.858,0-1.554-0.694-1.554-1.551v-2.415C191.583,376.729,192.279,376.034,193.137,376.034z"/><g><path style="fill:#e6e6e6" d="M223.63,410.181c0-7.071-2.644-14.953-7.318-20.825l-0.005-0.029 c-1.545-2.018-3.399-3.762-5.482-5.178c-1.487-1.033-3.085-1.883-4.786-2.506c-0.078-0.03-0.155-0.062-0.233-0.092h-0.017 h-0.416h-12.116h-0.416C181.791,385.433,175,398.849,175,410.181c0,10.301,6.426,15.879,15.493,17.913v0.004 c0.114,0.024,0.228,0.047,0.342,0.071c1.11,0.236,2.257,0.42,3.437,0.555c0.029,0.003,0.057,0.007,0.086,0.01 c0.047,0.005,0.094,0.01,0.141,0.015c1.595,0.178,3.2,0.263,4.807,0.251c0.003,0,0.006,0,0.009,0s0.006,0,0.009,0 c1.607,0.012,3.212-0.072,4.807-0.251c0.047-0.005,0.094-0.01,0.141-0.015c0.029-0.003,0.057-0.007,0.086-0.01 c1.179-0.134,2.327-0.318,3.437-0.555c0.114-0.023,0.228-0.046,0.342-0.071l0.003-0.004 C217.206,426.059,223.63,420.481,223.63,410.181z"/><path style="fill:#ccc" d="M215.875,389.325h0.431c-0.139-0.174-0.289-0.339-0.431-0.51V389.325z"/></g><ellipse style="fill:#45db82" cx="199.322" cy="405.827" rx="13.267" ry="13.241"/><ellipse style="fill:#eb1763" cx="221.528" cy="411.563" rx="17.472" ry="17.437"/><ellipse style="fill:#fff" cx="221.528" cy="411.563" rx="14.16" ry="14.132"/><path style="fill:#181818" d="M227.442,407.53c0.517-0.516,0.517-1.354,0-1.87c-0.517-0.516-1.356-0.516-1.874,0l-5.024,5.014 l1.874,1.87L227.442,407.53z"/><path style="fill:#ee3840" d="M220.725,411.196l-7.452,7.438c-0.323,0.323-0.323,0.846,0,1.169 c0.162,0.161,0.374,0.242,0.586,0.242s0.424-0.081,0.586-0.242l7.452-7.438L220.725,411.196z"/><path style="fill:#181818" d="M215.731,403.907c-0.517-0.516-1.356-0.516-1.874,0c-0.517,0.516-0.517,1.354,0,1.87l6.78,6.767 l1.874-1.87L215.731,403.907z"/><path style="fill:#524e4d" d="M221.528,413.629c-1.141,0-2.07-0.927-2.07-2.066s0.929-2.066,2.07-2.066 c1.141,0,2.07,0.927,2.07,2.066S222.67,413.629,221.528,413.629z"/><g><path style="fill:#7a7674" d="M211.923,412.389h-1.242c-0.457,0-0.828-0.37-0.828-0.826s0.371-0.826,0.828-0.826h1.242 c0.457,0,0.828,0.37,0.828,0.826S212.38,412.389,211.923,412.389z"/><path style="fill:#7a7674" d="M221.528,402.802c-0.457,0-0.828-0.37-0.828-0.826v-1.24c0-0.456,0.371-0.826,0.828-0.826 s0.828,0.37,0.828,0.826v1.24C222.356,402.432,221.985,402.802,221.528,402.802z"/><path style="fill:#7a7674" d="M232.376,412.389h-1.242c-0.457,0-0.828-0.37-0.828-0.826s0.371-0.826,0.828-0.826h1.242 c0.457,0,0.828,0.37,0.828,0.826S232.833,412.389,232.376,412.389z"/><path style="fill:#7a7674" d="M221.528,423.215c-0.457,0-0.828-0.37-0.828-0.826v-1.24c0-0.456,0.371-0.826,0.828-0.826 s0.828,0.37,0.828,0.826v1.24C222.356,422.845,221.985,423.215,221.528,423.215z"/></g><g><path style="fill:#fff" d="M194.415,404.199c0.024,0,0.039,0,0.055,0c0.758,0,1.517,0,2.275,0.001 c0.038,0,0.049-0.008,0.049-0.048c-0.001-0.781-0.001-1.563-0.001-2.344c0-0.207-0.047-0.398-0.19-0.556 c-0.124-0.137-0.284-0.209-0.457-0.262c-0.215-0.066-0.427-0.061-0.641,0.003c-0.04,0.012-0.078,0.03-0.11,0.058 c-0.018,0.016-0.024,0.01-0.034-0.007c-0.163-0.279-0.306-0.569-0.406-0.875c-0.046-0.141-0.009-0.29,0.093-0.412 c0.104-0.124,0.239-0.204,0.384-0.271c0.222-0.103,0.452-0.185,0.695-0.218c0.571-0.076,1.04,0.095,1.392,0.565 c0.278,0.372,0.424,0.793,0.492,1.246c0.035,0.232,0.047,0.465,0.046,0.7c-0.002,0.787-0.001,1.574-0.001,2.361 c0,0.06,0,0.06,0.058,0.06c0.206,0,0.412,0,0.617,0c0.021,0,0.037,0.003,0.054,0.019c0.384,0.393,0.768,0.785,1.153,1.177 c0.003,0.003,0.005,0.007,0.009,0.012c-0.016,0.008-0.031,0.004-0.046,0.004c-0.599,0-1.197,0.001-1.796-0.001 c-0.039,0-0.05,0.01-0.049,0.049c0.001,1.12,0.001,2.24,0.001,3.361c0,0.376,0.159,0.673,0.464,0.89 c0.153,0.109,0.333,0.15,0.516,0.177c0.538,0.08,1.019-0.073,1.46-0.369c0.557-0.374,1.02-0.843,1.377-1.412 c0.191-0.304,0.322-0.633,0.38-0.988c0.013-0.078,0.017-0.157,0.028-0.235c0.004-0.03-0.007-0.033-0.033-0.031 c-0.118,0.008-0.234,0.026-0.353,0.022c-0.253-0.009-0.5-0.046-0.734-0.15c-0.308-0.137-0.521-0.365-0.65-0.673 c-0.084-0.201-0.124-0.411-0.143-0.626c-0.021-0.247-0.02-0.494,0.057-0.733c0.099-0.307,0.26-0.575,0.529-0.764 c0.178-0.125,0.382-0.189,0.595-0.223c0.276-0.044,0.552-0.053,0.828-0.001c0.345,0.066,0.645,0.221,0.901,0.459 c0.492,0.459,0.796,1.022,0.901,1.686c0.136,0.858-0.016,1.672-0.399,2.447c-0.228,0.462-0.526,0.878-0.866,1.264 c-0.272,0.309-0.565,0.597-0.896,0.844c-0.509,0.38-1.071,0.647-1.693,0.784c-0.326,0.072-0.655,0.105-0.988,0.108 c-0.316,0.002-0.614-0.078-0.898-0.211c-0.55-0.259-1.007-0.632-1.372-1.117c-0.118-0.157-0.209-0.329-0.265-0.518 c-0.009-0.031-0.013-0.061-0.013-0.093c0-1.298,0-2.597,0.001-3.895c0-0.04-0.008-0.052-0.05-0.052 c-0.376,0.002-0.751,0.001-1.127,0.002c-0.026,0-0.045-0.007-0.064-0.026C195.176,404.992,194.799,404.599,194.415,404.199z"/></g></g><rect style="fill:none" width="64" height="64" x="175" y="365"/></g><rect style="fill:none" width="64" height="64" x="175" y="365"/></g></svg>