<?xml version="1.0" encoding="iso-8859-1"?>
<!-- Generator: Adobe Illustrator 22.0.0, SVG Export Plug-In . SVG Version: 6.00 Build 0)  -->
<svg version="1.1" id="Layer_1" xmlns="http://www.w3.org/2000/svg" xmlns:xlink="http://www.w3.org/1999/xlink" x="0px" y="0px"
	 viewBox="0 0 64 64" style="enable-background:new 0 0 64 64;" xml:space="preserve">
<g>
	<g>
		<path style="fill:#E6E6E6;" d="M9.06,59.917c0.144,0.066,0.314,0.092,0.471,0.092c0.301,0,0.602-0.118,0.825-0.327l8.21-7.857
			h15.439c3.209,0,5.814-2.606,5.814-5.815v-8.76c0-0.655-0.537-1.191-1.191-1.191c-0.655,0-1.192,0.537-1.192,1.191v8.76
			c0,1.899-1.545,3.431-3.431,3.431H18.083c-0.302,0-0.603,0.118-0.825,0.327l-6.547,6.26v-5.382c0-0.655-0.536-1.191-1.191-1.191
			H5.904c-1.898,0-3.431-1.545-3.431-3.431V28.869c0-1.898,1.545-3.444,3.431-3.444h14.05c0.655,0,1.192-0.537,1.192-1.192
			s-0.537-1.191-1.192-1.191H5.904c-3.208,0-5.814,2.606-5.814,5.814V46.01c0,3.209,2.606,5.815,5.814,5.815H8.34v7.005
			C8.34,59.302,8.628,59.733,9.06,59.917L9.06,59.917z M9.06,59.917"/>
		<path style="fill:#EB1763;" d="M58.237,4.068H29.913c-3.221,0-5.854,2.619-5.854,5.854v17.285c0,3.221,2.619,5.854,5.854,5.854
			h15.57l8.276,7.922c0.223,0.21,0.524,0.327,0.825,0.327c0.157,0,0.315-0.026,0.471-0.092c0.432-0.183,0.721-0.616,0.721-1.087
			V33.06h2.462c3.221,0,5.854-2.619,5.854-5.854V9.921C64.09,6.7,61.471,4.068,58.237,4.068z"/>
		<g>
			<path style="fill:#EB1763;" d="M21.398,38.947c0.423,0,0.829-0.177,1.128-0.476c0.301-0.3,0.476-0.705,0.476-1.129
				c0-0.424-0.176-0.829-0.476-1.129c-0.3-0.3-0.705-0.476-1.128-0.476c-0.424,0-0.829,0.177-1.129,0.476
				c-0.3,0.3-0.476,0.705-0.476,1.129c0,0.424,0.177,0.829,0.476,1.129C20.568,38.788,20.974,38.947,21.398,38.947L21.398,38.947z
				 M21.398,38.947"/>
			<path style="fill:#EB1763;" d="M27.359,38.947c0.423,0,0.829-0.177,1.129-0.476c0.3-0.3,0.476-0.705,0.476-1.129
				c0-0.424-0.176-0.829-0.476-1.129c-0.3-0.3-0.706-0.476-1.129-0.476c-0.424,0-0.829,0.177-1.129,0.476
				c-0.3,0.3-0.476,0.705-0.476,1.129c0,0.424,0.177,0.829,0.476,1.129C26.512,38.788,26.935,38.947,27.359,38.947L27.359,38.947z
				 M27.359,38.947"/>
			<path style="fill:#EB1763;" d="M15.454,38.947c0.423,0,0.829-0.177,1.129-0.476c0.3-0.3,0.476-0.705,0.476-1.129
				c0-0.424-0.176-0.829-0.476-1.129c-0.3-0.3-0.706-0.476-1.129-0.476c-0.424,0-0.829,0.177-1.129,0.476
				c-0.3,0.3-0.476,0.705-0.476,1.129c0,0.424,0.177,0.829,0.476,1.129C14.624,38.788,15.03,38.947,15.454,38.947L15.454,38.947z
				 M15.454,38.947"/>
		</g>
		<g>
			<path style="fill:#E6E6E6;" d="M55.192,14.73h-9.5c-0.695,0-1.258-0.563-1.258-1.258v-0.016c0-0.695,0.563-1.258,1.258-1.258h9.5
				c0.695,0,1.258,0.563,1.258,1.258v0.016C56.45,14.166,55.887,14.73,55.192,14.73z"/>
			<path style="fill:#E6E6E6;" d="M55.192,19.884H39.808c-0.695,0-1.258-0.563-1.258-1.258V18.61c0-0.695,0.563-1.258,1.258-1.258
				h15.384c0.695,0,1.258,0.563,1.258,1.258v0.016C56.45,19.321,55.887,19.884,55.192,19.884z"/>
			<path style="fill:#E6E6E6;" d="M55.192,25.038H32.957c-0.695,0-1.258-0.563-1.258-1.258v-0.016c0-0.695,0.563-1.258,1.258-1.258
				h22.235c0.695,0,1.258,0.563,1.258,1.258v0.016C56.45,24.475,55.887,25.038,55.192,25.038z"/>
		</g>
	</g>
	<rect x="0.09" style="fill:none;" width="63.91" height="63.91"/>
</g>
</svg>
